<svg xmlns="http://www.w3.org/2000/svg" version="1.1" viewBox="-5.0 -10.0 110.0 135.0">
 <path d="m55.004 26.984c-3.5977-3.6016-8.4414-5.6836-13.531-5.8125-5.0938-0.125-10.035 1.7148-13.805 5.1328-3.7734 3.4219-6.082 8.1641-6.4492 13.242s1.2344 10.105 4.4727 14.035c3.2383 3.9258 7.8672 6.457 12.922 7.0664 5.0547 0.60547 10.152-0.75391 14.23-3.8047l16.836 16.836c0.73437 0.73828 1.9297 0.73828 2.668 0l1.3359-1.3359-0.003906 0.003906c0.73828-0.73828 0.73828-1.9336 0-2.668l-16.836-16.836c2.8477-3.8164 4.2305-8.5234 3.8906-13.273-0.33594-4.7461-2.3711-9.2148-5.7305-12.586zm-2.2305 21.867c-3.4609 5.1914-9.9141 7.5039-15.883 5.6953-5.9727-1.8086-10.055-7.3125-10.055-13.551 0-6.2422 4.082-11.746 10.055-13.555 5.9688-1.8086 12.422 0.50391 15.883 5.6953 3.168 4.7578 3.168 10.957 0 15.715z"/>
<text x="0.0" y="117.5" font-size="5.0" font-weight="bold" font-family="Arbeit Regular, Helvetica, Arial-Unicode, Arial, Sans-serif" fill="#000000">Created by Wan HD</text><text x="0.0" y="122.5" font-size="5.0" font-weight="bold" font-family="Arbeit Regular, Helvetica, Arial-Unicode, Arial, Sans-serif" fill="#000000">from Noun Project</text></svg>